{
  "accessors": [
    {
      "bufferView": 2,
      "componentType": 5126,
      "count": 1287,
      "max": [
        3.825679063796997,
        9.898370742797852,
        4.7799601554870605
      ],
      "min": [
        -3.0114219188690186,
        -0.045857999473810196,
        -4.7799601554870605
      ],
      "type": "VEC3"
    },
    {
      "bufferView": 2,
      "byteOffset": 15444,
      "componentType": 5126,
      "count": 1287,
      "max": [
        0.9913234114646912,
        0.9988279342651367,
        0.9983648657798767
      ],
      "min": [
        -0.9962470531463623,
        -1.0,
        -0.9983648657798767
      ],
      "type": "VEC3"
    },
    {
      "bufferView": 1,
      "componentType": 5126,
      "count": 1287,
      "max": [
        7.868103758274161e+34,
        7.5550769749204825e+31
      ],
      "min": [
        -3.698280096054077,
        -3.7565441131591797
      ],
      "type": "VEC2"
    },
    {
      "bufferView": 0,
      "componentType": 5125,
      "count": 1356,
      "type": "SCALAR"
    },
    {
      "bufferView": 2,
      "byteOffset": 30888,
      "componentType": 5126,
      "count": 246,
      "max": [
        3.825679063796997,
        6.001317024230957,
        3.7565441131591797
      ],
      "min": [
        -0.03548699989914894,
        -0.026450999081134796,
        -3.7565441131591797
      ],
      "type": "VEC3"
    },
    {
      "bufferView": 2,
      "byteOffset": 33840,
      "componentType": 5126,
      "count": 246,
      "max": [
        1.0,
        0.21859663724899292,
        0.9010321497917175
      ],
      "min": [
        0.0,
        -1.0,
        -0.9010321497917175
      ],
      "type": "VEC3"
    },
    {
      "bufferView": 1,
      "byteOffset": 10296,
      "componentType": 5126,
      "count": 246,
      "max": [
        7.205959024599219e+31,
        1.8177418295132121e+31
      ],
      "min": [
        0.0,
        0.0
      ],
      "type": "VEC2"
    },
    {
      "bufferView": 0,
      "byteOffset": 5424,
      "componentType": 5125,
      "count": 252,
      "type": "SCALAR"
    },
    {
      "bufferView": 2,
      "byteOffset": 36792,
      "componentType": 5126,
      "count": 330,
      "max": [
        3.1011979579925537,
        7.898098945617676,
        1.3781490325927734
      ],
      "min": [
        1.5240639448165894,
        5.568130970001221,
        -1.3781490325927734
      ],
      "type": "VEC3"
    },
    {
      "bufferView": 2,
      "byteOffset": 40752,
      "componentType": 5126,
      "count": 330,
      "max": [
        0.9705942273139954,
        0.9253677129745483,
        1.0
      ],
      "min": [
        -1.0,
        -0.9426817297935486,
        -1.0
      ],
      "type": "VEC3"
    },
    {
      "bufferView": 1,
      "byteOffset": 12264,
      "componentType": 5126,
      "count": 330,
      "max": [
        7.2064696748654245e+31,
        1.8177418295132121e+31
      ],
      "min": [
        0.0,
        0.0
      ],
      "type": "VEC2"
    },
    {
      "bufferView": 0,
      "byteOffset": 6432,
      "componentType": 5125,
      "count": 336,
      "type": "SCALAR"
    },
    {
      "bufferView": 2,
      "byteOffset": 44712,
      "componentType": 5126,
      "count": 46,
      "max": [
        0.0016049999976530671,
        9.608255386352539,
        3.4204208850860596
      ],
      "min": [
        -0.28854700922966003,
        7.567253112792969,
        -3.4204208850860596
      ],
      "type": "VEC3"
    },
    {
      "bufferView": 2,
      "byteOffset": 45264,
      "componentType": 5126,
      "count": 46,
      "max": [
        0.9977266192436218,
        0.22280213236808777,
        0.22960388660430908
      ],
      "min": [
        0.9630162715911865,
        -0.06380170583724976,
        -0.22960388660430908
      ],
      "type": "VEC3"
    },
    {
      "bufferView": 1,
      "byteOffset": 14904,
      "componentType": 5126,
      "count": 46,
      "max": [
        1.382141315511923e+31,
        1.888646054189102e+31
      ],
      "min": [
        -1.0,
        -1.0
      ],
      "type": "VEC2"
    },
    {
      "bufferView": 0,
      "byteOffset": 7776,
      "componentType": 5125,
      "count": 48,
      "type": "SCALAR"
    }
  ],
  "asset": {
    "extras": {
      "author": "IronEqual (https://sketchfab.com/ie-niels)",
      "license": "CC-BY-4.0 (http://creativecommons.org/licenses/by/4.0/)",
      "source": "https://sketchfab.com/3d-models/koala-from-poly-by-google-9ad5554ac9bd4c29a12a4911810658fb",
      "title": "Koala from Poly by Google"
    },
    "generator": "Sketchfab-12.65.0",
    "version": "2.0"
  },
  "bufferViews": [
    {
      "buffer": 0,
      "byteLength": 7968,
      "name": "floatBufferViews",
      "target": 34963
    },
    {
      "buffer": 0,
      "byteLength": 15272,
      "byteOffset": 7968,
      "byteStride": 8,
      "name": "floatBufferViews",
      "target": 34962
    },
    {
      "buffer": 0,
      "byteLength": 45816,
      "byteOffset": 23240,
      "byteStride": 12,
      "name": "floatBufferViews",
      "target": 34962
    }
  ],
  "buffers": [
    {
      "byteLength": 69056,
      "uri": "scene.bin"
    }
  ],
  "materials": [
    {
      "doubleSided": true,
      "name": "455A64",
      "pbrMetallicRoughness": {
        "baseColorFactor": [
          0.270588,
          0.352941,
          0.392157,
          1.0
        ],
        "metallicFactor": 0.0,
        "roughnessFactor": 0.744802
      }
    },
    {
      "doubleSided": true,
      "name": "FFFFFF",
      "pbrMetallicRoughness": {
        "metallicFactor": 0.0,
        "roughnessFactor": 0.744802
      }
    },
    {
      "doubleSided": true,
      "name": "1A1A1A",
      "pbrMetallicRoughness": {
        "baseColorFactor": [
          0.101961,
          0.101961,
          0.101961,
          1.0
        ],
        "metallicFactor": 0.0,
        "roughnessFactor": 0.744802
      }
    },
    {
      "doubleSided": true,
      "name": "F06292",
      "pbrMetallicRoughness": {
        "baseColorFactor": [
          0.941176,
          0.384314,
          0.572549,
          1.0
        ],
        "metallicFactor": 0.0,
        "roughnessFactor": 0.744802
      }
    }
  ],
  "meshes": [
    {
      "name": "Object_0",
      "primitives": [
        {
          "attributes": {
            "NORMAL": 1,
            "POSITION": 0,
            "TEXCOORD_0": 2
          },
          "indices": 3,
          "material": 0,
          "mode": 4
        }
      ]
    },
    {
      "name": "Object_1",
      "primitives": [
        {
          "attributes": {
            "NORMAL": 5,
            "POSITION": 4,
            "TEXCOORD_0": 6
          },
          "indices": 7,
          "material": 1,
          "mode": 4
        }
      ]
    },
    {
      "name": "Object_2",
      "primitives": [
        {
          "attributes": {
            "NORMAL": 9,
            "POSITION": 8,
            "TEXCOORD_0": 10
          },
          "indices": 11,
          "material": 2,
          "mode": 4
        }
      ]
    },
    {
      "name": "Object_3",
      "primitives": [
        {
          "attributes": {
            "NORMAL": 13,
            "POSITION": 12,
            "TEXCOORD_0": 14
          },
          "indices": 15,
          "material": 3,
          "mode": 4
        }
      ]
    }
  ],
  "nodes": [
    {
      "children": [
        1
      ],
      "matrix": [
        1.0,
        0.0,
        0.0,
        0.0,
        0.0,
        2.220446049250313e-16,
        -1.0,
        0.0,
        0.0,
        1.0,
        2.220446049250313e-16,
        0.0,
        0.0,
        0.0,
        0.0,
        1.0
      ],
      "name": "Sketchfab_model"
    },
    {
      "children": [
        2
      ],
      "name": "root"
    },
    {
      "children": [
        3
      ],
      "matrix": [
        1.0,
        0.0,
        0.0,
        0.0,
        0.0,
        2.220446049250313e-16,
        1.0,
        0.0,
        0.0,
        -1.0,
        2.220446049250313e-16,
        0.0,
        0.0,
        0.0,
        0.0,
        1.0
      ],
      "name": "GLTF_SceneRootNode"
    },
    {
      "children": [
        4,
        5,
        6,
        7
      ],
      "name": "node-0_0"
    },
    {
      "mesh": 0,
      "name": "Object_4"
    },
    {
      "mesh": 1,
      "name": "Object_5"
    },
    {
      "mesh": 2,
      "name": "Object_6"
    },
    {
      "mesh": 3,
      "name": "Object_7"
    }
  ],
  "scene": 0,
  "scenes": [
    {
      "name": "Sketchfab_Scene",
      "nodes": [
        0
      ]
    }
  ]
}
